<svg id="Layer_5" enable-background="new 0 0 64 64" height="512" viewBox="0 0 64 64" width="512" xmlns="http://www.w3.org/2000/svg" xmlns:xlink="http://www.w3.org/1999/xlink"><linearGradient id="SVGID_1_" gradientUnits="userSpaceOnUse" x1="32" x2="32" y1="63" y2="1"><stop offset="0" stop-color="#9f2fff"/><stop offset="1" stop-color="#0bb1d3"/></linearGradient><path d="m60 1h-56c-1.654 0-3 1.346-3 3v46c0 1.654 1.346 3 3 3h13.339c-2.077 2.446-3.339 5.592-3.339 9v1h36v-1c0-3.408-1.262-6.555-3.339-9h13.339c1.654 0 3-1.346 3-3v-46c0-1.654-1.346-3-3-3zm-56 2h56c.551 0 1 .449 1 1v9h-58v-9c0-.551.449-1 1-1zm40 58v-4h-2v4h-20v-4h-2v4h-3.958c.436-5.154 4.21-9.453 9.19-10.627l.956 9.558 5.812-4.65 5.812 4.649.956-9.558c4.98 1.174 8.754 5.474 9.19 10.627h-3.958zm-21-22c-1.103 0-2-.897-2-2s.897-2 2-2zm0-7v1c-.124 0-.242.026-.363.037l-1.23-2.46c-.266-.532-.407-1.127-.407-1.723 0-2.125 1.729-3.854 3.854-3.854h.764l.276-.553c.513-1.026 1.294-1.865 2.245-2.467l1.08 7.02h-3.219c-1.654 0-3 1.346-3 3zm12.956-10.638c.018-.118.021-.238.027-.358 3.876.04 7.017 3.202 7.017 7.086 0 1.095-.259 2.191-.749 3.17l-.888 1.776c-.121-.01-.239-.036-.363-.036v-1c0-1.654-1.346-3-3-3h-3.219zm5.044 13.638c1.103 0 2 .897 2 2s-.897 2-2 2zm-7.021-13.941-1.815 11.801c-.024.16-.303.16-.327 0l-1.816-11.801c-.014-.09-.021-.181-.021-.272 0-.985.802-1.787 1.787-1.787h.426c.985 0 1.787.802 1.787 1.787 0 .091-.007.182-.021.272zm-8.979 10.941c0-.551.449-1 1-1h3.527l.333 2.164c.163 1.064 1.063 1.836 2.14 1.836s1.977-.772 2.14-1.836l.333-2.164h3.527c.551 0 1 .449 1 1v8c0 2.757-2.243 5-5 5h-4c-2.757 0-5-2.243-5-5zm11.45 18.043.338.026-.6 6-2.782-2.226zm-6.45-3.043h4c.156 0 .309-.013.463-.023l.447 1.791-2.91 3.633-2.91-3.633.447-1.791c.154.01.307.023.463.023zm-2.45 3.043 3.044 3.801-2.782 2.226-.6-6zm32.45.957h-15.417c-2.096-1.635-4.663-2.698-7.473-2.912l-.314-.024-.376-1.504c2.367-.876 4.13-2.993 4.5-5.56h.08c2.206 0 4-1.794 4-4 0-1.365-.689-2.57-1.736-3.292l.776-1.553c.628-1.255.96-2.661.96-4.065 0-5.012-4.078-9.09-9.09-9.09h-.379c-.641-1.184-1.88-2-3.318-2h-.426c-1.716 0-3.152 1.154-3.616 2.722-1.574.691-2.896 1.82-3.773 3.296-3.016.233-5.398 2.762-5.398 5.836 0 .905.214 1.811.618 2.618l1.118 2.236c-1.047.722-1.736 1.927-1.736 3.292 0 2.206 1.794 4 4 4h.08c.37 2.567 2.133 4.683 4.5 5.56l-.375 1.504-.316.024c-2.809.215-5.376 1.277-7.471 2.912h-15.418c-.551 0-1-.448-1-1v-35h58v35c0 .552-.449 1-1 1zm-49-46h-6v6h6zm-2 4h-2v-2h2zm10-4h-6v6h6zm-2 4h-2v-2h2zm10-4h-6v6h6zm-2 4h-2v-2h2zm34-4h-16v6h16zm-2 4h-12v-2h12zm-25 34c1.654 0 3-1.346 3-3s-1.346-3-3-3-3 1.346-3 3 1.346 3 3 3zm0-4c.551 0 1 .448 1 1s-.449 1-1 1-1-.448-1-1 .449-1 1-1z" fill="url(#SVGID_1_)"/></svg>